<svg width="16" height="17" viewBox="0 0 16 17" fill="none" xmlns="http://www.w3.org/2000/svg">
<path d="M13.8981 10.4039L10.9538 9.08449L10.9456 9.08074C10.7928 9.01537 10.626 8.98913 10.4605 9.00441C10.2949 9.01968 10.1358 9.07599 9.99751 9.16824C9.98122 9.179 9.96557 9.19068 9.95063 9.20324L8.42938 10.5001C7.46563 10.032 6.47063 9.04449 6.00251 8.09324L7.30126 6.54887C7.31376 6.53324 7.32563 6.51762 7.33688 6.50074C7.42715 6.36281 7.48192 6.20469 7.49631 6.04048C7.5107 5.87626 7.48428 5.71103 7.41938 5.55949V5.55199L6.09626 2.60262C6.01047 2.40466 5.86296 2.23975 5.67575 2.13252C5.48854 2.02528 5.27166 1.98147 5.05751 2.00762C4.21061 2.11906 3.43324 2.53497 2.87059 3.17768C2.30794 3.82038 1.99847 4.64592 2.00001 5.50012C2.00001 10.4626 6.03751 14.5001 11 14.5001C11.8542 14.5016 12.6797 14.1922 13.3224 13.6295C13.9651 13.0669 14.3811 12.2895 14.4925 11.4426C14.5187 11.2285 14.475 11.0117 14.3679 10.8245C14.2607 10.6373 14.096 10.4898 13.8981 10.4039ZM11 13.5001C8.87898 13.4978 6.8455 12.6542 5.34571 11.1544C3.84592 9.65462 3.00232 7.62114 3.00001 5.50012C2.99765 4.8898 3.21754 4.29949 3.61859 3.83943C4.01964 3.37938 4.57444 3.08103 5.17938 3.00012C5.17913 3.00261 5.17913 3.00512 5.17938 3.00762L6.49188 5.94512L5.20001 7.49137C5.18689 7.50646 5.17498 7.52255 5.16438 7.53949C5.07033 7.68382 5.01515 7.84999 5.0042 8.02191C4.99325 8.19382 5.0269 8.36565 5.10188 8.52074C5.66813 9.67887 6.83501 10.837 8.00563 11.4026C8.16186 11.4769 8.33468 11.5094 8.50722 11.4969C8.67976 11.4844 8.8461 11.4274 8.99001 11.3314C9.00605 11.3206 9.02149 11.3089 9.03626 11.2964L10.5556 10.0001L13.4931 11.3157C13.4931 11.3157 13.4981 11.3157 13.5 11.3157C13.4201 11.9215 13.1222 12.4775 12.662 12.8795C12.2019 13.2815 11.611 13.5022 11 13.5001Z" fill="#344054"/>
</svg>
